<svg id="Capa_1" xmlns="http://www.w3.org/2000/svg" viewBox="0 0 200 200"><style>.st0{fill:#fff}</style><title>4</title><path class="st0" d="M152.3 85.3c-2.4-1.6-8-2.2-12.3-1.4-.5-4.1-2.8-7.6-6.9-10.8l-2.3-1.6-1.6 2.4c-2 3-3 7.3-2.7 11.3.1 1.4.6 4 2.1 6.2-1.5.8-4.3 1.9-8.2 1.8h-73l-.1.8c-.7 4.1-.7 16.8 7.6 26.5 6.2 7.4 15.6 11.1 27.7 11.1 26.5 0 46-12.2 55.2-34.5 3.6.1 11.4 0 15.3-7.6.1-.2.3-.6 1-2.1l.4-.8-2.2-1.3zM105.1 69H94v10.1h11.1V69zm0 12H94v10.1h11.1V81zm0-24H94v10.1h11.1V57zm13 24H107v10.1h11.1V81zm-26-12H81v10.1h11.1V69zm-26 12H55v10.1h11.1V81zm13 0H68v10.1h11.1V81zm13 0H81v10.1h11.1V81zm-13-12H68v10.1h11.1V69z"/></svg>